<?xml version="1.0" encoding="UTF-8"?>
<svg version="1.1" xmlns="http://www.w3.org/2000/svg" width="844" height="852">
<path d="M0 0 C2.99643213 1.43239946 6.06156667 2.67054571 9.13627625 3.92381287 C11.64006425 4.94709145 14.13293759 5.9935634 16.62402344 7.04736328 C22.18384377 9.398922 27.74799837 11.74002472 33.31420898 14.07641602 C34.28420334 14.48363388 35.25419769 14.89085175 36.25358582 15.31040955 C46.9681819 19.80158441 57.71818359 24.20548699 68.47436523 28.59594727 C69.35805786 28.95668335 70.24175049 29.31741943 71.15222168 29.68908691 C75.40578166 31.42497828 79.65989903 33.15949781 83.91430664 34.89331055 C93.00063207 38.59736927 102.08088007 42.31632017 111.16186523 46.03344727 C111.16186523 47.35344727 111.16186523 48.67344727 111.16186523 50.03344727 C109.4862854 50.73969238 109.4862854 50.73969238 107.77685547 51.46020508 C86.0569935 60.61647615 64.34669461 69.79448267 42.66186523 79.03344727 C26.41096963 85.95714887 10.146473 92.8476499 -6.13012695 99.71069336 C-20.54508791 105.78956452 -34.94561003 111.9016564 -49.33813477 118.03344727 C-65.38978632 124.87173609 -81.4515672 131.68550644 -97.52563477 138.47094727 C-98.47148437 138.87031494 -99.41733398 139.26968262 -100.3918457 139.68115234 C-103.08600518 140.81853399 -105.78037427 141.95541714 -108.47485352 143.09204102 C-109.24790329 143.41828964 -110.02095306 143.74453827 -110.81742859 144.08067322 C-117.15006146 146.75030881 -123.49424166 149.39015847 -129.83813477 152.03344727 C-130.16813477 243.11344727 -130.49813477 334.19344727 -130.83813477 428.03344727 C-136.85645384 426.02734091 -142.57516656 423.97459914 -148.33813477 421.40844727 C-149.4093457 420.94051758 -149.4093457 420.94051758 -150.50219727 420.46313477 C-155.70181461 418.16976742 -155.70181461 418.16976742 -156.83813477 417.03344727 C-156.93497405 415.52173586 -156.96185198 414.00549337 -156.96118259 412.49068356 C-156.96317364 411.50289156 -156.96516469 410.51509956 -156.96721607 409.49737448 C-156.96430323 408.39914895 -156.96139039 407.30092342 -156.95838928 406.16941833 C-156.95924371 405.01291859 -156.96009813 403.85641885 -156.96097845 402.66487366 C-156.9623466 399.44047284 -156.95919926 396.21611167 -156.95420039 392.99171555 C-156.94989909 389.5199897 -156.95134208 386.04826585 -156.95210266 382.57653809 C-156.9526281 376.5567779 -156.94947922 370.53702851 -156.94386482 364.51727104 C-156.93575252 355.81361398 -156.93313488 347.10996217 -156.93187683 338.40630174 C-156.92968589 324.28665263 -156.92302465 310.16700927 -156.91357422 296.04736328 C-156.9044012 282.32796253 -156.89731983 268.60856335 -156.89306641 254.88916016 C-156.89280368 254.04410313 -156.89254096 253.19904611 -156.89227027 252.32838129 C-156.89096528 248.08915977 -156.88970156 243.84993824 -156.88845837 239.6107167 C-156.87808443 204.41828945 -156.86046497 169.22586889 -156.83813477 134.03344727 C-151.36310252 131.70585391 -145.88799968 129.3784267 -140.41283512 127.0511446 C-138.55541099 126.26159859 -136.6980052 125.47200943 -134.84061909 124.682374 C-122.32758825 119.36271957 -109.81002277 114.0543192 -97.27954102 108.77587891 C-80.95092619 101.89639912 -64.6391445 94.97805922 -48.33813477 88.03344727 C-17.55319054 74.91975164 13.24772367 61.84026416 44.16186523 49.03344727 C40.58341161 45.95746769 36.50531353 44.38051814 32.16967773 42.67016602 C31.38728729 42.35570023 30.60489685 42.04123444 29.79879761 41.71723938 C27.29703403 40.71283967 24.79214415 39.71654221 22.28686523 38.72094727 C19.82602423 37.73782191 17.36589144 36.75296716 14.90643311 35.76638794 C13.29441441 35.12056988 11.68133769 34.47738632 10.06719971 33.83688354 C6.36880145 32.36179517 2.70556772 30.8505981 -0.90942383 29.18041992 C-1.53632111 28.89455521 -2.16321838 28.60869049 -2.80911255 28.31416321 C-4.46751173 27.54968398 -6.11641223 26.76469022 -7.7644043 25.97802734 C-14.69861985 23.84709168 -20.87440745 27.03097456 -27.21313477 29.72485352 C-28.11784012 30.1015065 -29.02254547 30.47815948 -29.95466614 30.8662262 C-32.91895271 32.10211888 -35.87844299 33.34909624 -38.83813477 34.59594727 C-40.9167797 35.46452163 -42.99580498 36.33218627 -45.07519531 37.19897461 C-49.30775409 38.96371043 -53.53893148 40.73169904 -57.76928711 42.50170898 C-65.59315001 45.77080587 -73.43919162 48.9850065 -81.2883606 52.19274902 C-96.87449983 58.56436645 -112.43348262 65.00064445 -127.98486328 71.45654297 C-139.19377983 76.10947053 -150.40693004 80.75199294 -161.625 85.3828125 C-165.56466848 87.00928114 -169.50289771 88.63916115 -173.43994141 90.27197266 C-181.93096016 93.790628 -190.42741007 97.28485676 -198.97875977 100.65454102 C-200.98177117 101.45208092 -202.98413863 102.25121068 -204.98620605 103.05111694 C-206.76551774 103.75473145 -208.55316255 104.43716116 -210.34106445 105.11865234 C-216.43721211 107.5577657 -221.73927194 109.96112523 -224.83813477 116.03344727 C-226.9374129 122.77768598 -227.11558548 129.01083785 -227.0786438 136.04296875 C-227.08120707 137.83569245 -227.08120707 137.83569245 -227.08382213 139.6646328 C-227.08653768 142.96450548 -227.0803221 146.26413864 -227.07026601 149.56398225 C-227.06160239 153.1289736 -227.06455372 156.69395799 -227.06607056 160.25895691 C-227.06711757 166.42975605 -227.06086019 172.60051279 -227.04959488 178.77130127 C-227.03331792 187.69314084 -227.02812963 196.61495997 -227.0256189 205.53681278 C-227.02124524 220.01307886 -227.00794507 234.48932235 -226.98901367 248.96557617 C-226.97064635 263.02514534 -226.95649402 277.08470836 -226.94799805 291.14428711 C-226.9474726 292.01140103 -226.94694715 292.87851496 -226.94640578 293.77190506 C-226.94379565 298.12210469 -226.94126824 302.47230435 -226.93878198 306.82250404 C-226.91805973 342.89283439 -226.88284317 378.96313907 -226.83813477 415.03344727 C-221.41104709 417.48150654 -215.98334073 419.92818742 -210.55509949 422.37368774 C-208.7152347 423.20279289 -206.87552858 424.03225025 -205.03599548 424.86209106 C-194.10802262 429.79154191 -183.16501279 434.67482399 -172.15063477 439.40844727 C-170.85758424 439.96515465 -169.56457905 440.52196731 -168.27161789 441.07888222 C-166.62231718 441.78922395 -166.62231718 441.78922395 -164.93969727 442.51391602 C-154.93213436 446.83402824 -144.98230318 451.28517602 -135.02563477 455.72094727 C-118.07357165 463.27315944 -101.0985271 470.77048194 -84.09667969 478.20996094 C-83.28540115 478.56523865 -82.47412262 478.92051636 -81.63825989 479.28656006 C-80.15467526 479.93615879 -78.67081163 480.58512098 -77.18656921 481.23321533 C-71.3762076 483.77731085 -65.61454574 486.40780591 -59.83813477 489.03344727 C-59.83813477 381.45344727 -59.83813477 273.87344727 -59.83813477 163.03344727 C-46.35742737 156.29309357 -46.35742737 156.29309357 -40.68969727 153.97485352 C-40.0556749 153.71347092 -39.42165253 153.45208832 -38.76841736 153.18278503 C-37.39281856 152.61581296 -36.01647076 152.05065524 -34.63943481 151.48718262 C-30.70220272 149.87481284 -26.77218951 148.24502284 -22.84204102 146.61547852 C-21.9816069 146.25888153 -21.12117279 145.90228455 -20.23466492 145.53488159 C-8.58930567 140.69814923 3.00223285 135.73438269 14.59936523 130.78344727 C32.32962461 123.21732354 50.07115007 115.67946648 67.83517456 108.19296265 C81.44460281 102.45677746 95.03804757 96.68404545 108.62350464 90.8913269 C122.90591393 84.80214111 137.19241359 78.72530774 151.53686523 72.78344727 C152.73118164 72.2878833 153.92549805 71.79231934 155.15600586 71.28173828 C163.03369451 68.03344727 163.03369451 68.03344727 164.16186523 68.03344727 C164.16186523 100.04344727 164.16186523 132.05344727 164.16186523 165.03344727 C157.77113363 168.22881307 151.49471541 171.26893461 144.92358398 174.01000977 C144.06140762 174.37293625 143.19923126 174.73586273 142.31092834 175.10978699 C139.49168696 176.29574515 136.67052654 177.47706444 133.84936523 178.65844727 C131.85279566 179.49752656 129.85637915 180.33697016 127.86010742 181.17675781 C123.70852298 182.92289199 119.55628491 184.66745801 115.40356445 186.41088867 C106.51103714 190.14553238 97.62603021 193.89797379 88.74121094 197.65090942 C85.92779315 198.83921975 83.11418544 200.0270794 80.30053711 201.21484375 C63.91227978 208.13394696 47.53566494 215.08018986 31.16186523 222.03344727 C31.16186523 234.24344727 31.16186523 246.45344727 31.16186523 259.03344727 C49.55047701 251.30187186 67.93672716 243.56636318 86.29190063 235.75579834 C88.73356371 234.71703393 91.17556055 233.67905833 93.61767578 232.64135742 C94.43765549 232.29291779 95.25763519 231.94447815 96.10246277 231.58547974 C97.78345571 230.87116927 99.46445551 230.15687495 101.14546204 229.44259644 C105.85078688 227.44269102 110.5548561 225.43987962 115.25756836 223.43383789 C120.47824914 221.20699992 125.70118122 218.98551557 130.92550659 216.76724243 C132.94873222 215.90701967 134.97114167 215.0448746 136.9927063 214.18075562 C139.80352311 212.97955559 142.61709118 211.78504017 145.43139648 210.59204102 C146.27317444 210.23043884 147.11495239 209.86883667 147.98223877 209.49627686 C148.75541443 209.17008362 149.52859009 208.84389038 150.32519531 208.5078125 C151.33336052 208.07842628 151.33336052 208.07842628 152.3618927 207.6403656 C154.16186523 207.03344727 154.16186523 207.03344727 157.16186523 207.03344727 C157.16186523 237.72344727 157.16186523 268.41344727 157.16186523 300.03344727 C148.16262346 304.53306815 148.16262346 304.53306815 144.75756836 305.96191406 C143.98479553 306.2877951 143.21202271 306.61367615 142.41583252 306.94943237 C141.59983582 307.29039948 140.78383911 307.63136658 139.94311523 307.98266602 C138.62509918 308.53738083 138.62509918 308.53738083 137.28045654 309.103302 C135.39217004 309.89771438 133.50338121 310.69093363 131.61413574 311.48306274 C127.58369305 313.17302395 123.55573134 314.86886026 119.52764893 316.56443787 C117.45334506 317.43757265 115.37892197 318.31042423 113.30438232 319.18299866 C103.32977807 323.37950183 93.36906092 327.60833536 83.41186523 331.84594727 C66.00067648 339.25474602 48.58108964 346.64347327 31.16186523 354.03344727 C30.83186523 398.58344727 30.50186523 443.13344727 30.16186523 489.03344727 C39.73186523 484.74344727 49.30186523 480.45344727 59.16186523 476.03344727 C64.90846366 473.49831159 70.65482125 470.96425448 76.40960693 468.44802856 C80.72940119 466.55897119 85.04711237 464.66516119 89.36499023 462.77172852 C90.25427216 462.3818425 91.14355408 461.99195648 92.05978394 461.59025574 C101.89354349 457.27707742 111.71592897 452.93822778 121.53686523 448.59594727 C122.4147168 448.20782867 123.29256836 447.81971008 124.19702148 447.41983032 C127.7628137 445.84322884 131.32854373 444.26648687 134.89416504 442.6894989 C141.63373043 439.70879114 148.37416348 436.73005127 155.11499023 433.75219727 C156.09742706 433.318181 157.07986389 432.88416473 158.09207153 432.43699646 C161.9171372 430.74719289 165.74221317 429.05741266 169.56732178 427.3677063 C172.17439941 426.21601778 174.78141982 425.06419983 177.38842773 423.91235352 C178.14593323 423.57776123 178.90343872 423.24316895 179.68389893 422.8984375 C180.40704285 422.57891113 181.13018677 422.25938477 181.87524414 421.93017578 C182.57482239 421.62258331 183.27440063 421.31499084 183.99517822 420.99807739 C185.53608769 420.31204951 187.07096384 419.61239981 188.60150146 418.90353394 C189.40049866 418.53640289 190.19949585 418.16927185 191.02270508 417.79101562 C191.74404633 417.45476669 192.46538757 417.11851776 193.20858765 416.77207947 C195.16186523 416.03344727 195.16186523 416.03344727 198.16186523 416.03344727 C198.16186523 306.14344727 198.16186523 196.25344727 198.16186523 83.03344727 C206.97095145 85.96980934 215.57568151 89.49795985 224.16186523 93.03344727 C224.16186523 205.23344727 224.16186523 317.43344727 224.16186523 433.03344727 C183.29831036 451.19502721 183.29831036 451.19502721 170.38604736 456.84518433 C166.16048234 458.6944964 161.93658113 460.54760252 157.71264648 462.40063477 C156.84500671 462.78124557 155.97736694 463.16185638 155.08343506 463.55400085 C145.31055885 467.843001 135.54810982 472.15555458 125.78686523 476.47094727 C124.89774445 476.86399048 124.00862366 477.25703369 123.09255981 477.6619873 C116.78201423 480.45176395 110.47188736 483.24248688 104.16186523 486.03344727 C82.40029655 495.65871877 60.63540454 505.27616209 38.84936523 514.84594727 C37.57654694 515.40537521 37.57654694 515.40537521 36.27801514 515.97610474 C31.61788185 518.02396701 26.95600205 520.06773503 22.29071045 522.1038208 C20.87100235 522.72378049 19.45177169 523.34483466 18.03302002 523.96697998 C16.06322142 524.83004713 14.09140943 525.68832424 12.11889648 526.54516602 C11.0113501 527.02816162 9.90380371 527.51115723 8.76269531 528.00878906 C6.16186523 529.03344727 6.16186523 529.03344727 4.16186523 529.03344727 C4.16186523 465.34344727 4.16186523 401.65344727 4.16186523 336.03344727 C44.15249765 318.8946048 44.15249765 318.8946048 61.34936523 311.65844727 C65.14788138 310.05899071 68.94604417 308.45869818 72.74389648 306.85766602 C73.68567749 306.46065994 74.6274585 306.06365387 75.59777832 305.65461731 C82.2978887 302.8272319 88.98781154 299.97658334 95.67358398 297.11547852 C97.52033419 296.32622784 99.36709506 295.53700212 101.21386719 294.74780273 C104.68178279 293.26560463 108.14738193 291.77815502 111.61181641 290.2878418 C113.17789057 289.61820249 114.74404801 288.9487579 116.31030273 288.27954102 C117.00616989 287.97836868 117.70203705 287.67719635 118.41899109 287.36689758 C119.07583389 287.08726669 119.7326767 286.8076358 120.40942383 286.51953125 C121.24840714 286.15915016 121.24840714 286.15915016 122.1043396 285.79148865 C125.06578979 284.70041996 128.12725268 283.90047942 131.16186523 283.03344727 C131.16186523 270.82344727 131.16186523 258.61344727 131.16186523 246.03344727 C127.96499023 247.45657227 124.76811523 248.87969727 121.47436523 250.34594727 C104.39535631 257.8930069 87.16268717 265.08038332 69.95446777 272.32620239 C59.70208046 276.64490319 49.46203983 280.99250665 39.22436523 285.34594727 C38.40491425 285.69425598 37.58546326 286.0425647 36.74118042 286.40142822 C35.15414083 287.07602498 33.56717886 287.75080438 31.9803009 288.42578125 C30.4820036 289.06292082 28.98346607 289.69949582 27.48466492 290.33544922 C23.9931439 291.81883931 20.50864659 293.31554106 17.03637695 294.84350586 C16.39051132 295.12598679 15.74464569 295.40846771 15.07920837 295.69950867 C13.3451079 296.45930134 11.61361087 297.22502827 9.88232422 297.99121094 C7.16186523 299.03344727 7.16186523 299.03344727 4.16186523 299.03344727 C4.16186523 267.68344727 4.16186523 236.33344727 4.16186523 204.03344727 C31.91876399 192.19911059 59.6750404 180.36587852 87.48217773 168.65014648 C96.06781287 165.03228379 104.64900907 161.40491564 113.21655273 157.74438477 C114.78189059 157.0764729 116.3472386 156.40858484 117.91259766 155.74072266 C120.79205079 154.51202838 123.66951355 153.27882572 126.54589844 152.04296875 C127.8071359 151.50446442 129.06844317 150.96612355 130.32983398 150.42797852 C131.41546631 149.96238525 132.50109863 149.49679199 133.61962891 149.01708984 C136.16186523 148.03344727 136.16186523 148.03344727 138.16186523 148.03344727 C138.16186523 134.83344727 138.16186523 121.63344727 138.16186523 108.03344727 C134.07231445 109.76014648 134.07231445 109.76014648 129.90014648 111.52172852 C128.48090378 112.12095375 128.48090378 112.12095375 127.0329895 112.73228455 C122.12781395 114.8033271 117.22268623 116.87448286 112.31762695 118.94580078 C102.1480824 123.24009196 91.97806049 127.53324101 81.80639648 131.82250977 C62.49539336 139.96699215 43.19536412 148.13653595 23.91186523 156.34594727 C21.94238844 157.18409525 19.97290608 158.02223016 18.00341797 158.86035156 C9.79951514 162.35216886 1.59646994 165.84591192 -6.6010437 169.35270691 C-9.72731274 170.68955821 -12.85469249 172.02379655 -15.9822998 173.35751343 C-17.41426424 173.96899844 -18.84567287 174.58178684 -20.27648926 175.19595337 C-22.20845001 176.02519271 -24.14218579 176.85014367 -26.07641602 177.67407227 C-27.14931885 178.13330078 -28.22222168 178.5925293 -29.32763672 179.06567383 C-31.83813477 180.03344727 -31.83813477 180.03344727 -33.83813477 180.03344727 C-33.83813477 295.20344727 -33.83813477 410.37344727 -33.83813477 529.03344727 C-43.96214602 525.65877685 -43.96214602 525.65877685 -47.34008789 524.14257812 C-48.10964813 523.79976807 -48.87920837 523.45695801 -49.67208862 523.10375977 C-50.47969635 522.73895508 -51.28730408 522.37415039 -52.11938477 521.99829102 C-52.99345978 521.60778564 -53.86753479 521.21728027 -54.76809692 520.81494141 C-56.64668631 519.9751933 -58.52444107 519.13357599 -60.40142822 518.29025269 C-65.45721072 516.0189596 -70.51929925 513.76178246 -75.58032227 511.50219727 C-76.61216644 511.04103012 -77.64401062 510.57986298 -78.7071228 510.10472107 C-88.60657342 505.68275511 -98.53155158 501.32015115 -108.46313477 496.97094727 C-111.84353208 495.48960733 -115.22370764 494.00776216 -118.60375977 492.52563477 C-119.4419223 492.15812103 -120.28008484 491.7906073 -121.14364624 491.41195679 C-135.34029909 485.18411968 -149.51478616 478.90590364 -163.69255066 472.63522339 C-170.07472618 469.8126002 -176.45807925 466.99265295 -182.84204102 464.17407227 C-190.89962963 460.61652329 -198.95623965 457.0567704 -207.01159668 453.49417114 C-211.39739354 451.55450479 -215.78357766 449.61572537 -220.1706543 447.67895508 C-224.42976439 445.79854575 -228.68763989 443.91536817 -232.9446106 442.03012085 C-234.5257799 441.33042758 -236.10737648 440.63169896 -237.68942261 439.93399048 C-239.85473901 438.97885856 -242.01849233 438.02027108 -244.18188477 437.06079102 C-245.13485191 436.64188095 -245.13485191 436.64188095 -246.10707092 436.21450806 C-248.87468128 434.98302068 -251.30693699 433.72091245 -253.83813477 432.03344727 C-254.21303159 429.81869191 -254.21303159 429.81869191 -254.21286488 426.99789715 C-254.22007142 425.9255629 -254.22727796 424.85322866 -254.23470289 423.74839944 C-254.2273286 422.56078965 -254.21995432 421.37317987 -254.21235657 420.14958191 C-254.21633097 418.89522774 -254.22030538 417.64087356 -254.22440022 416.34850866 C-254.23503022 412.85495065 -254.22683022 409.36164689 -254.21564972 405.86809981 C-254.20683548 402.10437675 -254.21524355 398.34068798 -254.22151184 394.57696533 C-254.2310212 387.19605235 -254.22437965 379.81523685 -254.2122489 372.43433108 C-254.19864237 363.83525392 -254.20026583 355.23620011 -254.20238223 346.63711492 C-254.20557578 331.28393551 -254.19388764 315.93080239 -254.17431641 300.57763672 C-254.15534728 285.69285672 -254.14821887 270.80813107 -254.15380859 255.92333984 C-254.15987634 239.71769798 -254.15966828 223.51208006 -254.14832276 207.30644017 C-254.1471155 205.57536495 -254.14590952 203.84428972 -254.14470482 202.11321449 C-254.14410128 201.26152365 -254.14349774 200.40983281 -254.14287591 199.53233316 C-254.13900543 193.54566856 -254.13938717 187.55901289 -254.14129066 181.57234764 C-254.14342047 174.26270259 -254.13813034 166.95310501 -254.12367711 159.64347329 C-254.11646727 155.91736257 -254.11232654 152.19132073 -254.11692047 148.46520424 C-254.12179236 144.41477984 -254.11101746 140.36454171 -254.09883118 136.31413269 C-254.1026105 135.15106085 -254.10638982 133.987989 -254.11028367 132.78967255 C-254.02946383 117.53225279 -251.87612297 103.32263056 -240.90039062 91.90234375 C-234.81080055 86.38372033 -226.96349429 82.95975865 -219.46313477 79.78344727 C-218.03590088 79.1706189 -218.03590088 79.1706189 -216.57983398 78.54541016 C-203.21482238 72.85282993 -189.7401766 67.41739746 -176.28833008 61.93431091 C-164.66302057 57.19518144 -153.05660656 52.41239698 -141.46313477 47.59594727 C-138.07384358 46.18831877 -134.68451114 44.78078962 -131.29516602 43.37329102 C-130.44658524 43.02085831 -129.59800446 42.6684256 -128.72370911 42.30531311 C-113.73600709 36.08251409 -98.73235588 29.89819263 -83.73191833 23.70617676 C-77.61926425 21.18263525 -71.50761355 18.65667891 -65.39668274 16.12896729 C-61.23267477 14.40658791 -57.0684128 12.68482307 -52.90414429 10.96307373 C-50.93480222 10.14863586 -48.96558001 9.33390811 -46.99649048 8.51885986 C-46.06485077 8.1332489 -45.13321106 7.74763794 -44.17333984 7.3503418 C-43.26658005 6.97431824 -42.35982025 6.59829468 -41.42558289 6.21087646 C-39.66139898 5.48392318 -37.89427748 4.76405243 -36.12409973 4.05181885 C-32.24816351 2.48775919 -28.46597077 0.88507965 -24.75952148 -1.05004883 C-15.17338418 -5.89060716 -9.1861807 -4.48866542 0 0 Z " fill="#CDA917" transform="translate(432.838134765625,278.966552734375)"/>
<path d="M0 0 C3 1 3 1 4.05566406 2.71484375 C4.37245117 3.44832031 4.68923828 4.18179687 5.015625 4.9375 C5.5571521 6.15095093 5.5571521 6.15095093 6.10961914 7.38891602 C6.48594482 8.25057373 6.86227051 9.11223145 7.25 10 C10.16220177 16.44883238 13.0480208 22.16522979 17.78515625 27.50390625 C19 29 19 29 19 31 C22.00779345 32.22191609 25.02910447 33.40584077 28.0625 34.5625 C29.03896484 34.93568359 29.03896484 34.93568359 30.03515625 35.31640625 C32.00503019 36.00175007 33.97007227 36.5252953 36 37 C36.00773437 37.85271484 36.00773437 37.85271484 36.015625 38.72265625 C36.29655118 41.52723597 36.73032196 43.46468748 38 46 C40.89441631 48.15171418 43.81419139 49.72041743 47.0546875 51.296875 C50.30741111 53.17776027 51.98055822 54.84641675 54 58 C55.08452573 62.58531098 54.46376079 66.16842894 52.1875 70.25 C51.465625 71.1575 50.74375 72.065 50 73 C47.07602018 76.86383048 46.40413206 79.90781259 46.59375 84.6640625 C47.62286655 90.58148267 51.23610893 94.64777658 55.8125 98.3125 C63.57768793 103.64382306 72.3273525 105.97625382 81.75 104.59765625 C87.71886804 103.09655699 90.68341537 101.18216348 94 96 C96.90588577 90.5088066 96.38545392 84.45045202 96.47851562 78.39257812 C96.77296525 68.80501113 96.77296525 68.80501113 100 65 C103.30282779 63.92543207 106.61254999 63.70261155 110.0625 63.4375 C119.25906187 62.48586964 127.71211505 60.67557384 136.54296875 57.98828125 C140 57 140 57 143 57 C141.12141317 63.58018222 138.96680961 69.95968104 136.4375 76.31640625 C135.92195557 77.62710335 135.92195557 77.62710335 135.39599609 78.96427917 C134.65456088 80.84816465 133.91134435 82.73134987 133.16650391 84.6138916 C131.14447236 89.72504396 129.13602321 94.84154007 127.125 99.95703125 C126.70605469 101.0215451 126.28710938 102.08605896 125.85546875 103.18283081 C121.61014216 113.97502454 117.41063115 124.7848229 113.22103882 135.59875488 C112.00676611 138.73253808 110.79119663 141.86581589 109.57543945 144.99902344 C106.29008532 153.47059314 103.0096893 161.94350269 99.79296875 170.44140625 C99.33986328 171.63475586 98.88675781 172.82810547 98.41992188 174.05761719 C97.64596211 176.1016805 96.87697373 178.14764032 96.11523438 180.19628906 C87.34399469 203.36288054 87.34399469 203.36288054 78 207.75 C77.154375 208.15734375 76.30875 208.5646875 75.4375 208.984375 C71.8729753 210.46959362 68.70128279 211.11443083 64.84765625 211.2109375 C64.07099609 211.23929688 63.29433594 211.26765625 62.49414062 211.296875 C60.87718161 211.34882549 59.25995852 211.39313653 57.64257812 211.4296875 C52.88924114 211.6187183 49.98599717 212.17122781 46 215 C45.34 215 44.68 215 44 215 C43.31225595 216.32258472 42.65288627 217.65986503 42 219 C41.505 219.969375 41.01 220.93875 40.5 221.9375 C38.35044262 227.34308532 38.35044262 227.34308532 37 239 C13.24 239 -10.52 239 -35 239 C-35.99 232.07 -35.99 232.07 -37 225 C-39.92472432 219.15055137 -42.68985993 214.34554548 -49 212 C-51.87061799 211.8008491 -54.68997422 211.68362902 -57.5625 211.625 C-66.6814932 211.2540641 -74.84335836 210.23196387 -81.875 203.875 C-89.09131328 195.48559145 -92.31224013 184.25973277 -96.12796021 174.04263306 C-97.87501224 169.36830233 -99.64183764 164.70147605 -101.41015625 160.03515625 C-101.78134079 159.05542343 -102.15252533 158.07569061 -102.53495789 157.06626892 C-106.76436954 145.93687216 -111.1616346 134.87493941 -115.5625 123.8125 C-121.31376215 109.33365696 -127.05870442 94.85259321 -132.68795776 80.32577515 C-133.34858598 78.62336611 -134.01157027 76.92186928 -134.67703247 75.22134399 C-135.58682445 72.8948357 -136.48798211 70.56517214 -137.38671875 68.234375 C-137.65445099 67.55447006 -137.92218323 66.87456512 -138.19802856 66.17405701 C-139.47068432 62.84305818 -140 60.63218493 -140 57 C-135.78480252 57.9032566 -131.60282931 58.83871672 -127.4375 59.953125 C-119.45343034 62.08604244 -111.77392182 63.61744752 -103.49609375 64.05273438 C-101.44921875 64.21484375 -101.44921875 64.21484375 -98 65 C-95.40210658 68.04833462 -94.60582536 70.74390351 -94.3125 74.6875 C-94.20808594 75.99074219 -94.20808594 75.99074219 -94.1015625 77.3203125 C-94.00303879 79.91982271 -94.08228173 82.46441799 -94.1875 85.0625 C-94.24866409 91.53569975 -92.11974981 96.63799307 -87.8125 101.4375 C-80.56545161 105.46363799 -73.02074513 105.57861265 -65 104 C-57.17099595 101.67280009 -50.96698489 96.92407679 -46.0625 90.4375 C-44.08563268 85.90233379 -43.5737027 82.62897631 -45.1875 77.9375 C-46.62363724 74.46959257 -48.55272419 71.85515511 -51 69 C-52.56477383 64.30567852 -52.66887845 60.60530829 -50.75 56 C-47.74559803 51.91709475 -42.93352165 49.80155418 -38.58203125 47.41796875 C-36.1405629 46.23370419 -36.1405629 46.23370419 -35 45 C-34.76924918 43.65252916 -34.58846937 42.29622435 -34.4375 40.9375 C-34.2209375 38.9884375 -34.2209375 38.9884375 -34 37 C-33.11957031 36.75765625 -32.23914063 36.5153125 -31.33203125 36.265625 C-30.17058594 35.93046875 -29.00914062 35.5953125 -27.8125 35.25 C-26.66394531 34.92515625 -25.51539063 34.6003125 -24.33203125 34.265625 C-11.26302282 29.30154677 -5.6803125 11.70839923 0 0 Z M-12 58 C-12.87140625 58.639375 -13.7428125 59.27875 -14.640625 59.9375 C-17.18447713 62.2145145 -18.6342616 63.85572766 -20 67 C-19.93801401 70.6024799 -19.53891364 73.8788062 -18.92724609 77.41430664 C-16.69062388 90.66433515 -21.82214684 101.45512825 -29.1875 112.1875 C-41.70668471 124.70668471 -56.12176361 130.07765397 -73.5 130.625 C-74.51320313 130.66367188 -75.52640625 130.70234375 -76.5703125 130.7421875 C-79.04671186 130.83563653 -81.52314323 130.91993295 -84 131 C-81.91240749 137.50647184 -79.54903071 143.86680213 -77.0234375 150.21484375 C-76.65272125 151.15179581 -76.282005 152.08874786 -75.90005493 153.05409241 C-75.12298461 155.0167372 -74.34476093 156.97892571 -73.56542969 158.94067383 C-72.36913656 161.95226081 -71.17646357 164.96526218 -69.984375 167.97851562 C-69.22677117 169.89070769 -68.46896593 171.80281997 -67.7109375 173.71484375 C-67.3536557 174.6168602 -66.9963739 175.51887665 -66.62826538 176.44822693 C-66.2976712 177.27991898 -65.96707703 178.11161102 -65.62646484 178.96850586 C-65.19036392 180.06696083 -65.19036392 180.06696083 -64.74545288 181.18760681 C-64.00430562 183.05252596 -64.00430562 183.05252596 -63 185 C-61.33324219 185.05607422 -61.33324219 185.05607422 -59.6328125 185.11328125 C-44.9263814 185.71398278 -32.38023018 187.96932118 -21.75 199.125 C-17.43893003 204.25096734 -14.7872939 209.93763576 -12 216 C-3.42 216 5.16 216 14 216 C15.010625 214.02 16.02125 212.04 17.0625 210 C23.11803293 198.62392516 30.59051084 191.10217529 43.125 187.1875 C46.50295302 186.31888351 49.60826715 185.94349542 53.078125 185.953125 C53.7882373 185.94643799 54.49834961 185.93975098 55.22998047 185.93286133 C56.6309106 185.93589088 58.03263602 185.98335796 59.43017578 186.08081055 C61.71158567 186.18773514 61.71158567 186.18773514 65 185 C66.39671413 183.03225736 66.39671413 183.03225736 67.47583008 180.56274414 C67.90138184 179.65565201 68.32693359 178.74855988 68.76538086 177.8139801 C70.63361862 173.55583789 72.34966129 169.25744154 73.98828125 164.90625 C74.51037422 163.5362384 74.51037422 163.5362384 75.04301453 162.1385498 C75.76888597 160.23035918 76.49223836 158.32120851 77.21313477 156.41113281 C78.32107867 153.47728357 79.43827109 150.54707634 80.55664062 147.6171875 C81.26356372 145.75541438 81.9699633 143.89344237 82.67578125 142.03125 C83.01007645 141.15424438 83.34437164 140.27723877 83.688797 139.37365723 C83.99299057 138.56521362 84.29718414 137.75677002 84.6105957 136.92382812 C85.01433159 135.8565448 85.01433159 135.8565448 85.42622375 134.7677002 C86.10291086 132.99269862 86.10291086 132.99269862 86 131 C85.42145264 130.98541748 84.84290527 130.97083496 84.24682617 130.95581055 C65.09431093 130.41654462 48.72979184 128.30905381 34.25390625 114.4140625 C23.98654195 103.41712812 20.37592605 92.79511836 20.76171875 78.015625 C20.86939052 75.29446576 21.19530923 72.93186819 21.69140625 70.21875 C22.28876263 67.08156958 22.28876263 67.08156958 20.890625 64.890625 C20.34921875 64.34921875 19.8078125 63.8078125 19.25 63.25 C18.45335937 62.42242187 18.45335937 62.42242187 17.640625 61.578125 C17.09921875 61.05734375 16.5578125 60.5365625 16 60 C15.55269531 59.51402344 15.10539062 59.02804688 14.64453125 58.52734375 C12.42536333 56.46631131 9.99227208 54.93517148 7.4375 53.3125 C6.46683594 52.68988281 5.49617188 52.06726563 4.49609375 51.42578125 C-1.52894791 47.98424728 -7.14641751 54.42621786 -12 58 Z " fill="#CDA917" transform="translate(417,26)"/>
</svg>
